<svg xmlns="http://www.w3.org/2000/svg" width="33.074" height="30.65" viewBox="0 0 33.074 30.65">
  <g id="Сгруппировать_63" data-name="Сгруппировать 63" transform="translate(0.325 0.325)">
    <path id="Контур_18" data-name="Контур 18" d="M56.142,41.467l-.223,1.261a1.4,1.4,0,0,0,.544,1.336,1.368,1.368,0,0,0,1.434.1l1.138-.594-.322-.594.322.594,1.138.594a1.443,1.443,0,0,0,.643.148,1.465,1.465,0,0,0,.816-.272,1.333,1.333,0,0,0,.544-1.336l-.223-1.261v-.025l.915-.89a1.364,1.364,0,0,0,.346-1.41,1.4,1.4,0,0,0-1.113-.94l-1.286-.2L60.3,36.867a1.347,1.347,0,0,0-1.237-.767,1.4,1.4,0,0,0-1.237.767l-.569,1.162-1.261.173a1.4,1.4,0,0,0-1.113.94,1.364,1.364,0,0,0,.346,1.41Zm.025-1.929,1.261-.173a1.416,1.416,0,0,0,1.039-.742l.569-1.162h.025l.569,1.162a1.356,1.356,0,0,0,1.039.742l1.286.2v.025l-.915.89a1.385,1.385,0,0,0-.4,1.212l.223,1.261h-.025L59.7,42.357a1.467,1.467,0,0,0-1.286,0l-1.138.594a.024.024,0,0,1-.025-.025l.223-1.261a1.385,1.385,0,0,0-.4-1.212l-.915-.915Z" transform="translate(-42.861 -29.991)" fill="#fff" stroke="#fff" stroke-width="0.65"/>
    <path id="Контур_19" data-name="Контур 19" d="M37.836,14.195a3.318,3.318,0,0,0-4.328-.668V13.28a1.879,1.879,0,0,0-1.88-1.88H13.771a1.879,1.879,0,0,0-1.88,1.88v.272a3.232,3.232,0,0,0-1.707-.519,3.439,3.439,0,0,0-2.622,1.187A4.422,4.422,0,0,0,6.5,17.262c0,2.176,1.707,3.858,3.24,5.342,1.162,1.138,2.275,2.226,2.275,3.215a1.273,1.273,0,0,1-1.237,1.237.665.665,0,0,0-.668.668v.049a.665.665,0,0,0,.668.668,2.679,2.679,0,0,0,2.646-2.646c0-1.583-1.311-2.869-2.721-4.229-1.385-1.336-2.795-2.721-2.795-4.3,0-1.682.915-2.819,2.275-2.819a2.683,2.683,0,0,1,1.731.965c.272,7.716,4.13,13.5,8.211,15.284V33.56c0,2.251-1.41,4.081-3.141,4.081a1.88,1.88,0,1,0,0,3.759H28.437a1.88,1.88,0,1,0,0-3.759c-1.731,0-3.141-1.83-3.141-4.081V30.642a11.939,11.939,0,0,0,4.551-3.858,20.641,20.641,0,0,0,3.66-11.4,2.725,2.725,0,0,1,1.731-.965c1.36,0,2.275,1.138,2.275,2.819,0,1.583-1.434,2.968-2.795,4.328C33.334,22.925,32,24.211,32,25.794a2.679,2.679,0,0,0,2.646,2.646.665.665,0,0,0,.668-.668v-.049a.665.665,0,0,0-.668-.668,1.255,1.255,0,0,1-1.237-1.237c0-.989,1.113-2.077,2.275-3.215,1.509-1.484,3.24-3.141,3.24-5.317A4.692,4.692,0,0,0,37.836,14.195ZM13.252,13.28a.522.522,0,0,1,.519-.519H31.653a.522.522,0,0,1,.519.519v1.113H13.252ZM23.936,31.235v2.3c0,2.993,2,5.441,4.5,5.441a.519.519,0,1,1,0,1.039H16.986a.519.519,0,1,1,0-1.039c2.473,0,4.5-2.448,4.5-5.441v-2.3Zm4.8-5.243c-1.781,2.424-4.056,3.883-6.035,3.883s-4.254-1.459-6.035-3.908a19.286,19.286,0,0,1-3.388-10.239H32.1A19.147,19.147,0,0,1,28.734,25.992Z" transform="translate(-6.5 -11.4)" fill="#fff" stroke="#fff" stroke-width="0.65"/>
  </g>
</svg>
