<svg xmlns="http://www.w3.org/2000/svg" width="26.462" height="30.65" viewBox="0 0 26.462 30.65">
  <g id="Сгруппировать_66" data-name="Сгруппировать 66" transform="translate(-106.392 -558.675)">
    <g id="Сгруппировать_23" data-name="Сгруппировать 23" transform="translate(106.724 559)">
      <path id="Контур_14" data-name="Контур 14" d="M61.455,28.4A5.471,5.471,0,0,0,56,33.855a5.785,5.785,0,0,0,1.835,4.264c.62.669.942,1.091.942,1.711v1.562h0a2.678,2.678,0,0,0,5.355,0V39.83h0c0-.62.347-1.017.942-1.711a5.785,5.785,0,0,0,1.835-4.264A5.455,5.455,0,0,0,61.455,28.4Zm0,14.306a1.323,1.323,0,0,1-1.314-1.314V40.5h2.628v.893A1.323,1.323,0,0,1,61.455,42.706Zm2.628-5.5a4.672,4.672,0,0,0-1.215,1.909h-.694V36.483l.372-.2.273.273a.674.674,0,0,0,.967,0l.05-.05a.659.659,0,0,0,0-.942l-.645-.645-.025-.025a.638.638,0,0,0-.793-.124l-.917.471-.917-.471a.72.72,0,0,0-.793.124l-.645.645a.674.674,0,0,0,0,.967l.05.05a.674.674,0,0,0,.967,0l.273-.273.372.2v2.653h-.694a4.841,4.841,0,0,0-1.215-1.909,4.577,4.577,0,0,1-1.488-3.347,4.091,4.091,0,1,1,8.182,0A4.5,4.5,0,0,1,64.083,37.2Z" transform="translate(-47.055 -24.21)" fill="#fff" stroke="#fff" stroke-width="0.65"/>
      <path id="Контур_15" data-name="Контур 15" d="M34.32,11.5a11.419,11.419,0,0,0-11.4,11.231l-2.727,4.537a1.845,1.845,0,0,0-.149,1.612A1.8,1.8,0,0,0,21.2,30l1.711.57v3.248a3.074,3.074,0,0,0,3.074,3.074h2.455a.524.524,0,0,1,.521.521v3.421a.667.667,0,0,0,.669.669H41.411a.677.677,0,0,0,.669-.669V31.26A11.4,11.4,0,0,0,34.32,11.5Zm6.645,18.967a.675.675,0,0,0-.223.521v9.174H30.328V37.409a1.857,1.857,0,0,0-1.86-1.86H26.014A1.714,1.714,0,0,1,24.3,33.839V30.12a.693.693,0,0,0-.471-.645l-2.157-.719a.543.543,0,0,1-.322-.3.5.5,0,0,1,.05-.446l2.777-4.736a.569.569,0,0,0,.1-.347,10.041,10.041,0,1,1,16.686,7.537Z" transform="translate(-19.92 -11.5)" fill="#fff" stroke="#fff" stroke-width="0.65"/>
    </g>
  </g>
</svg>
