<svg xmlns="http://www.w3.org/2000/svg" width="29.911" height="30" viewBox="0 0 29.911 30">
  <path id="Контур_43" data-name="Контур 43" d="M48,30.6H44.307A7.368,7.368,0,0,0,42.6,24.887a7.893,7.893,0,0,0-1.068-1.011l1.648-3.884a1.206,1.206,0,1,0-2.22-.942l-1.523,3.588a13.125,13.125,0,0,0-5.219-1.016,12.711,12.711,0,0,0-5.136,1.045l-1.535-3.616a1.206,1.206,0,1,0-2.22.942l1.666,3.926a7.909,7.909,0,0,0-1.034.977,7.4,7.4,0,0,0-1.769,5.7H20.5a1.206,1.206,0,1,0,0,2.412h4.032a43.214,43.214,0,0,0,1.894,7.533l-3.64,1.874a1.206,1.206,0,1,0,1.1,2.144l3.472-1.787c1.542,3.177,3.735,5.539,6.851,5.539,3.323,0,5.532-2.395,7.021-5.488l3.373,1.736a1.206,1.206,0,1,0,1.1-2.144l-3.554-1.829a43.472,43.472,0,0,0,1.806-7.578H48A1.206,1.206,0,1,0,48,30.6ZM34.215,45.9c-2.062,0-3.847-1.889-5.305-5.614a43.58,43.58,0,0,1-2.29-9.622,5.061,5.061,0,0,1,1.151-4.183,8.6,8.6,0,0,1,6.444-2.45c2.782,0,5.235.911,6.561,2.436a5.051,5.051,0,0,1,1.1,4.2C41.342,34.437,39.732,45.9,34.215,45.9Z" transform="translate(-19.295 -18.314)" fill="#fff"/>
</svg>
