<svg xmlns="http://www.w3.org/2000/svg" width="139.044" height="133.938" viewBox="0 0 139.044 133.938">
  <path id="Контур_44" data-name="Контур 44" d="M119.747,82.593a2.423,2.423,0,0,0-1.4-1.223l-12.4-3.93-9.083-9.781a2.379,2.379,0,0,0-1.834-.786l-6.288.175c.087-.611.087-1.223.175-1.747a18.887,18.887,0,0,0,0-3.144l8.384-4.8a2.558,2.558,0,0,0,1.135-1.4l7.773-26.2,8.559-5.764a2.544,2.544,0,0,0,1.048-1.572,2.786,2.786,0,0,0-.349-1.834,2.544,2.544,0,0,0-1.572-1.048,2.786,2.786,0,0,0-1.834.349l-9.345,6.288a2.855,2.855,0,0,0-.961,1.31L93.984,53.6,88.133,57a29.678,29.678,0,0,0-6.026-12.139c.524-4.541-1.135-9.781-4.8-14.41a30.147,30.147,0,0,0-2.62-2.969l3.755-6.725,6.463-4.1a2.387,2.387,0,0,0,.7-3.319,2.6,2.6,0,0,0-1.485-1.048,2.35,2.35,0,0,0-1.834.349l-6.9,4.454a1.912,1.912,0,0,0-.786.873L70.928,24.6a17.8,17.8,0,0,0-5.939-2.358,2.55,2.55,0,0,0-.786-.175h-.7a2.55,2.55,0,0,0-.786.175A17.127,17.127,0,0,0,56.78,24.6l-3.668-6.637a2.477,2.477,0,0,0-.786-.873l-6.9-4.454a2.693,2.693,0,0,0-1.834-.349,2.6,2.6,0,0,0-1.485,1.048,2.468,2.468,0,0,0,.7,3.319l6.463,4.1,3.755,6.725a30.146,30.146,0,0,0-2.62,2.969C46.824,35,45.078,40.236,45.6,44.778a29.678,29.678,0,0,0-6.026,12.139l-5.851-3.406L25.952,27.4a2.855,2.855,0,0,0-.961-1.31L15.647,19.8a2.223,2.223,0,0,0-1.834-.349A2.668,2.668,0,0,0,12.241,20.5a2.223,2.223,0,0,0-.349,1.834,2.668,2.668,0,0,0,1.048,1.572L21.5,29.669l7.773,26.2a2.236,2.236,0,0,0,1.135,1.4l8.384,4.8a18.9,18.9,0,0,0,0,3.144,13.126,13.126,0,0,0,.175,1.747l-6.375-.175a2.378,2.378,0,0,0-1.834.786l-9,9.869-12.4,3.93a2.162,2.162,0,0,0-1.4,1.223,2.683,2.683,0,0,0-.175,1.834,2.442,2.442,0,0,0,2.271,1.659,1.7,1.7,0,0,0,.7-.087l13.013-4.1a2.1,2.1,0,0,0,1.048-.611l8.821-9.432,6.113.175c.349,1.921.786,4.017,1.223,6.2l-5.327,2.009a2.217,2.217,0,0,0-1.223,1.135L24.205,100.147a2.689,2.689,0,0,0-.262,1.135v12.925a2.358,2.358,0,0,0,4.716,0v-12.4l9.519-17.467,3.93-1.485c.873,3.493,1.834,7.074,2.707,10.305,5.939,20.61,8.384,20.61,10.131,20.61H72.675c1.747,0,4.192,0,10.131-20.61.961-3.231,1.921-6.812,2.707-10.305l3.93,1.485,9.519,17.467v12.4a2.358,2.358,0,0,0,4.716,0v-13.1a2.417,2.417,0,0,0-.262-1.135L93.2,81.2a2.575,2.575,0,0,0-1.223-1.135l-5.327-2.009c.437-2.183.873-4.279,1.223-6.2l6.113-.175,8.821,9.432a3.14,3.14,0,0,0,1.048.7l13.013,4.1a2.17,2.17,0,0,0,.7.087,2.442,2.442,0,0,0,2.271-1.659A2.046,2.046,0,0,0,119.747,82.593ZM43.681,65.039a24.331,24.331,0,0,1,5.327-16.681A36.381,36.381,0,0,0,61.5,51.328v57.639H55.732C52.676,104.688,44.292,75.519,43.681,65.039ZM52.5,36.481a2.271,2.271,0,0,1,4.541,0,2.312,2.312,0,0,1-2.271,2.271A2.255,2.255,0,0,1,52.5,36.481Zm9.432,0a7.15,7.15,0,0,0-4.367-6.55,13.282,13.282,0,0,1,6.375-3.057,13.282,13.282,0,0,1,6.375,3.057,7.083,7.083,0,0,0,2.707,13.624A6.85,6.85,0,0,0,77.478,41.9a9.493,9.493,0,0,1,.087,1.572,31.637,31.637,0,0,1-13.711,3.057,30.443,30.443,0,0,1-13.449-2.969,12.3,12.3,0,0,1,.087-1.747,7.264,7.264,0,0,0,4.541,1.659A6.932,6.932,0,0,0,61.933,36.481Zm11,2.271a2.255,2.255,0,0,1-2.271-2.271,2.315,2.315,0,0,1,4.192-1.31v.087a2.005,2.005,0,0,1,.349,1.223A2.255,2.255,0,0,1,72.937,38.752Zm-.961,70.128H66.212V51.328A34.553,34.553,0,0,0,78.7,48.271a24.425,24.425,0,0,1,5.327,16.768C83.417,75.519,75.033,104.688,71.976,108.88Z" transform="matrix(0.951, 0.309, -0.309, 0.951, 28.701, -14.001)" fill="#9d1d96" opacity="0.9"/>
</svg>
