<svg xmlns="http://www.w3.org/2000/svg" width="35" height="29.846" viewBox="0 0 35 29.846">
  <path id="Контур_38" data-name="Контур 38" d="M119.858,133.485l-11.5-27.75a3.394,3.394,0,0,0-6.272,0l-11.5,27.75a3.722,3.722,0,0,0,5.121,4.745,21.16,21.16,0,0,1,19.022,0,3.723,3.723,0,0,0,5.121-4.745Zm-9.309-3.708a1.055,1.055,0,0,1-1.137.267,12.319,12.319,0,0,0-8.373,0,1.068,1.068,0,0,1-1.35-1.414l4.55-10.964a1.068,1.068,0,0,1,1.973,0l4.551,10.964A1.055,1.055,0,0,1,110.549,129.778Z" transform="translate(138.64 -90.303) rotate(90)" fill="#009845"/>
</svg>
