<svg xmlns="http://www.w3.org/2000/svg" width="64.631" height="51.475" viewBox="0 0 64.631 51.475">
  <g id="Сгруппировать_43" data-name="Сгруппировать 43" transform="translate(0.838 0.737)">
    <path id="Контур_86" data-name="Контур 86" d="M418.5,480.53a13,13,0,0,0,1.971-.977c4.692-2.849,6.184-8.264,3.505-12.759-3.489-5.853-12.126-8.037-18.492-4.934-.293.142-.574.294-.847.452a19.138,19.138,0,0,1-13.511,2.344,27.615,27.615,0,0,0-19.743,2.986c-9.306,5.569-11.9,16.382-6.025,25.017,6.914,10.171,22.429,13.817,33.963,8.2,5.475-2.668,9.034-6.929,10.39-11.691C410.816,485.295,414.177,482.242,418.5,480.53Z" transform="translate(-362.23 -460.45)" fill="none" stroke="#fff" stroke-linecap="round" stroke-linejoin="round" stroke-width="1.4"/>
    <path id="Контур_87" data-name="Контур 87" d="M362.23,483.541c3.616,15.8,18.488,26.026,28.711,24.167,14.621-2.658,19.293-10.4,22.541-18.138,3.238-7.713,9.8-7.887,11.63-18.809" transform="translate(-362.23 -457.926)" fill="none" stroke="#fff" stroke-linecap="round" stroke-linejoin="round" stroke-width="1.4"/>
    <path id="Контур_88" data-name="Контур 88" d="M373.149,481.17c7.272,13.09,19.519,9.992,24.864,1.161s5.577-13.71-4.648-13.245S368.5,472.805,373.149,481.17Z" transform="translate(-359.774 -458.343)" fill="none" stroke="#fff" stroke-linecap="round" stroke-linejoin="round" stroke-width="1.4"/>
  </g>
</svg>
