<svg xmlns="http://www.w3.org/2000/svg" width="25.001" height="25" viewBox="0 0 25.001 25">
  <path id="Контур_104" data-name="Контур 104" d="M3401.051,4046.54A22.653,22.653,0,0,1,3378.4,4069.2a1.172,1.172,0,0,1-1.144-.907l-1.173-5.079a1.19,1.19,0,0,1,.685-1.348l5.469-2.344a1.17,1.17,0,0,1,1.366.337l2.423,2.958a18.109,18.109,0,0,0,8.652-8.652l-2.96-2.423a1.169,1.169,0,0,1-.335-1.366l2.344-5.469a1.18,1.18,0,0,1,1.344-.678l5.077,1.17A1.175,1.175,0,0,1,3401.051,4046.54Z" transform="translate(-3376.05 -4044.196)" fill="#fff"/>
</svg>
