<svg xmlns="http://www.w3.org/2000/svg" width="49.509" height="61.449" viewBox="0 0 49.509 61.449">
  <g id="Сгруппировать_38" data-name="Сгруппировать 38" transform="translate(0.7 0.75)">
    <path id="Контур_79" data-name="Контур 79" d="M53.894,117.841c-15.152,0-24.055-16.211-24.055-26.358s7.283-18.37,16.266-18.37A15.065,15.065,0,0,1,53.894,75.3a15.059,15.059,0,0,1,7.789-2.185c8.983,0,16.265,8.225,16.265,18.37S69.379,117.841,53.894,117.841Z" transform="translate(-29.839 -57.841)" fill="none" stroke="#fff" stroke-linecap="round" stroke-linejoin="round" stroke-width="1.4"/>
    <path id="Контур_80" data-name="Контур 80" d="M73.782,91.436c0,8.208-6.931,21.322-19.458,21.322" transform="translate(-30.017 -57.975)" fill="none" stroke="#fff" stroke-linecap="round" stroke-linejoin="round" stroke-width="1.4"/>
    <path id="Контур_81" data-name="Контур 81" d="M54.07,75.231a19.57,19.57,0,0,1,3.31-11.273" transform="translate(-30.015 -57.775)" fill="none" stroke="#fff" stroke-linecap="round" stroke-linejoin="round" stroke-width="1.4"/>
    <g id="Сгруппировать_37" data-name="Сгруппировать 37" transform="translate(6.039 0)">
      <path id="Контур_82" data-name="Контур 82" d="M47.547,59.824a14.308,14.308,0,0,0-11.625-1.474A14.34,14.34,0,0,0,54.19,69.476,14.307,14.307,0,0,0,47.547,59.824Z" transform="translate(-35.922 -57.729)" fill="none" stroke="#fff" stroke-linecap="round" stroke-linejoin="round" stroke-width="1.4"/>
      <line id="Линия_8" data-name="Линия 8" x2="15.292" y2="9.314" transform="translate(2.976 2.432)" fill="none" stroke="#fff" stroke-linecap="round" stroke-linejoin="round" stroke-width="1.4"/>
    </g>
  </g>
</svg>
