<svg xmlns="http://www.w3.org/2000/svg" width="110.899" height="108.024" viewBox="0 0 110.899 108.024">
  <g id="Сгруппировать_33" data-name="Сгруппировать 33" transform="translate(-17.095 4.711) rotate(-11)" opacity="0.6">
    <path id="Контур_45" data-name="Контур 45" d="M52.576,69.628A2.219,2.219,0,0,0,50.348,67.4h-1.32a2.228,2.228,0,0,0,0,4.456h1.238A2.29,2.29,0,0,0,52.576,69.628Z" transform="translate(-5.696 -8.903)" fill="#9d1d96"/>
    <path id="Контур_46" data-name="Контур 46" d="M63.076,80.828A2.219,2.219,0,0,0,60.848,78.6h-1.32a2.228,2.228,0,0,0,0,4.456h1.32A2.169,2.169,0,0,0,63.076,80.828Z" transform="translate(-7.531 -10.861)" fill="#9d1d96"/>
    <path id="Контур_47" data-name="Контур 47" d="M56.348,95.3h-1.32a2.228,2.228,0,1,0,0,4.456h1.32a2.228,2.228,0,1,0,0-4.456Z" transform="translate(-6.744 -13.78)" fill="#9d1d96"/>
    <path id="Контур_48" data-name="Контур 48" d="M63.848,107.1h-1.32a2.228,2.228,0,1,0,0,4.456h1.32a2.228,2.228,0,1,0,0-4.456Z" transform="translate(-8.055 -15.842)" fill="#9d1d96"/>
    <path id="Контур_49" data-name="Контур 49" d="M93.766,67.3H92.528a2.228,2.228,0,0,0,0,4.456h1.32a2.219,2.219,0,0,0,2.228-2.228A2.291,2.291,0,0,0,93.766,67.3Z" transform="translate(-13.299 -8.885)" fill="#9d1d96"/>
    <path id="Контур_50" data-name="Контур 50" d="M85.476,80.828A2.219,2.219,0,0,0,83.248,78.6h-1.32a2.228,2.228,0,1,0,0,4.456h1.32A2.169,2.169,0,0,0,85.476,80.828Z" transform="translate(-11.446 -10.861)" fill="#9d1d96"/>
    <path id="Контур_51" data-name="Контур 51" d="M87.748,95.3h-1.32a2.228,2.228,0,1,0,0,4.456h1.32a2.228,2.228,0,1,0,0-4.456Z" transform="translate(-12.233 -13.78)" fill="#9d1d96"/>
    <path id="Контур_52" data-name="Контур 52" d="M80.248,107.1h-1.32a2.228,2.228,0,1,0,0,4.456h1.32a2.228,2.228,0,1,0,0-4.456Z" transform="translate(-10.922 -15.842)" fill="#9d1d96"/>
    <path id="Контур_53" data-name="Контур 53" d="M108.277,73.763l-10.15-5.776a2.686,2.686,0,0,0-1.155-.33h-6.6c.083-1.238.165-2.476.165-3.631a39.579,39.579,0,0,0-.578-7.014l6.684-5.2a2.042,2.042,0,0,0,.825-1.32l4.374-19.64,5.034-4.7a2.276,2.276,0,0,0-3.136-3.3l-5.529,5.116a2.353,2.353,0,0,0-.66,1.155L93.175,48.595,88.8,51.978c-.083-.165-.083-.33-.165-.5h0a6.226,6.226,0,0,0-5.776-4.291,21.832,21.832,0,0,0-4.786-11.718l5.942-6.354a2.2,2.2,0,0,0,.578-1.155l1.568-8.83a2.252,2.252,0,0,0-1.815-2.641,2.021,2.021,0,0,0-1.65.413,2.19,2.19,0,0,0-.908,1.485l-1.238,8.417L75.1,32.586a20.883,20.883,0,0,0-26.407,0L43.25,26.809l-1.4-8.252a2.19,2.19,0,0,0-.908-1.485,2.265,2.265,0,0,0-3.548,2.311l1.568,8.83a2.2,2.2,0,0,0,.578,1.155l5.942,6.354a21.571,21.571,0,0,0-4.786,11.718,6.2,6.2,0,0,0-5.776,4.291c-.083.165-.083.33-.165.5l-4.374-3.383L26.086,29.285a2.353,2.353,0,0,0-.66-1.155L19.9,23.013a1.958,1.958,0,0,0-1.65-.578,2.032,2.032,0,0,0-1.568.743,2.319,2.319,0,0,0,.083,3.218l5.034,4.7,4.374,19.64a2.268,2.268,0,0,0,.825,1.32l6.684,5.2a49.24,49.24,0,0,0-.578,7.014c0,1.155.083,2.393.165,3.631h-6.6a2.063,2.063,0,0,0-1.155.33l-10.15,5.776a2.188,2.188,0,0,0-.825,3.053,2.222,2.222,0,0,0,1.981,1.155,2.063,2.063,0,0,0,1.155-.33l9.572-5.446h6.6a69.816,69.816,0,0,0,1.815,8l-9.407,5.446a2.148,2.148,0,0,0-1.073,1.485L22.7,100.088l-5.611,3.8a2.46,2.46,0,0,0-.99,1.4,2.633,2.633,0,0,0,.33,1.733,2.217,2.217,0,0,0,3.136.578l6.354-4.291a2.46,2.46,0,0,0,.99-1.4l2.476-12.626,7.674-4.456c4.7,12.461,13.368,23.188,24.674,23.188,7.922,0,15.349-5.446,20.96-15.266a58.2,58.2,0,0,0,3.713-7.922l7.674,4.456L96.559,101.9a2.138,2.138,0,0,0,.99,1.4L103.9,107.6a2.456,2.456,0,0,0,1.238.413,2.422,2.422,0,0,0,1.9-.99,2.1,2.1,0,0,0,.33-1.733,2.138,2.138,0,0,0-.99-1.4l-5.611-3.8L98.291,87.379a2.219,2.219,0,0,0-1.073-1.485l-9.407-5.446a55.879,55.879,0,0,0,1.815-8h6.6L105.8,77.89a2.686,2.686,0,0,0,1.155.33,2.457,2.457,0,0,0,1.32-4.456ZM79.394,89.69c-4.786,8.83-10.975,13.7-17.494,13.7S49.191,98.52,44.405,89.69a57.637,57.637,0,0,1-6.684-25.582,38.109,38.109,0,0,1,1.568-11.058,1.511,1.511,0,0,1,1.4-1.073h.33c4.869,1.073,15.019,3.713,18.65,4.621V81.438a2.228,2.228,0,0,0,4.456,0V56.6c3.548-.908,13.7-3.548,18.65-4.621a1.478,1.478,0,0,1,1.733.99,38.109,38.109,0,0,1,1.568,11.058A57.694,57.694,0,0,1,79.394,89.69ZM51.915,41.745a2.558,2.558,0,1,1,2.558-2.558A2.571,2.571,0,0,1,51.915,41.745Zm0,4.539a7.1,7.1,0,0,0,4.126-12.873,15.964,15.964,0,0,1,11.718,0,6.971,6.971,0,0,0-2.971,5.776,7.15,7.15,0,0,0,7.1,7.1A7.075,7.075,0,0,0,77.579,43.4a19.6,19.6,0,0,1,1.073,4.951C72.627,49.832,63.963,52.06,61.9,52.556c-1.981-.5-10.728-2.723-16.752-4.209A16.585,16.585,0,0,1,46.221,43.4,7.075,7.075,0,0,0,51.915,46.284Zm22.528-7.1a2.558,2.558,0,1,1-2.558-2.558A2.571,2.571,0,0,1,74.443,39.187Z" transform="translate(0)" fill="#9d1d96"/>
  </g>
</svg>
