<svg xmlns="http://www.w3.org/2000/svg" width="42.525" height="61.4" viewBox="0 0 42.525 61.4">
  <g id="Сгруппировать_36" data-name="Сгруппировать 36" transform="translate(0.7 0.7)">
    <path id="Контур_76" data-name="Контур 76" d="M820.713,371.118c-2.234,7.269-5.817,9.13-11.2,11.832-.141.067-.278.14-.416.212l-.2.1h0a14.767,14.767,0,0,0,6.99,27.773c17.97,0,24.387-21.862,23.279-39.846" transform="translate(-801.129 -351.035)" fill="none" stroke="#fff" stroke-linecap="round" stroke-linejoin="round" stroke-width="1.4"/>
    <path id="Контур_77" data-name="Контур 77" d="M813.965,406.207c13.192,0,19.333-13.341,20.468-26.965" transform="translate(-799.645 -350.096)" fill="none" stroke="#fff" stroke-linecap="round" stroke-linejoin="round" stroke-width="1.4"/>
    <path id="Контур_78" data-name="Контур 78" d="M839.926,370.99c-2.039-1-2.757-3.791-2.757-6.858a8.233,8.233,0,0,0-5.768-7.7,2.518,2.518,0,0,1-1.611-1.6c-.335-1.027-.945-1.716-1.643-1.716-.769,0-1.431.832-1.737,2.034a2.575,2.575,0,0,1-1.287,1.711,8.655,8.655,0,0,0-4.692,7.6c-.05,2.932-.786,5.556-2.745,6.523a.822.822,0,0,0-.037,1.473,6.214,6.214,0,0,0,7.636-1.081,5.15,5.15,0,0,0,3.2,5.113.831.831,0,0,0,.634,0,5.15,5.15,0,0,0,3.2-5.113,6.215,6.215,0,0,0,7.637,1.081A.82.82,0,0,0,839.926,370.99Z" transform="translate(-799.27 -353.116)" fill="none" stroke="#fff" stroke-linecap="round" stroke-linejoin="round" stroke-width="1.4"/>
  </g>
</svg>
