<svg xmlns="http://www.w3.org/2000/svg" width="55.049" height="61.673" viewBox="0 0 55.049 61.673">
  <g id="Сгруппировать_35" data-name="Сгруппировать 35" transform="translate(0.779 0.894)">
    <path id="Контур_67" data-name="Контур 67" d="M606.805,99.712l-30.9,17.723a3.264,3.264,0,0,1-4.455-4.455l17.723-30.9a8.87,8.87,0,0,1,13.967-1.858l5.519,5.519A8.87,8.87,0,0,1,606.805,99.712Z" transform="translate(-571.003 -57.886)" fill="none" stroke="#fff" stroke-linecap="round" stroke-linejoin="round" stroke-width="1.4"/>
    <line id="Линия_1" data-name="Линия 1" x2="3.718" y2="3.718" transform="translate(4.014 48.884)" fill="none" stroke="#fff" stroke-linecap="round" stroke-linejoin="round" stroke-width="1.4"/>
    <line id="Линия_2" data-name="Линия 2" x1="4.335" y1="4.335" transform="translate(13.94 47.318)" fill="none" stroke="#fff" stroke-linecap="round" stroke-linejoin="round" stroke-width="1.4"/>
    <line id="Линия_3" data-name="Линия 3" x1="4.335" y1="4.335" transform="translate(13.186 38.477)" fill="none" stroke="#fff" stroke-linecap="round" stroke-linejoin="round" stroke-width="1.4"/>
    <line id="Линия_4" data-name="Линия 4" x1="4.335" y1="4.335" transform="translate(26.506 33.494)" fill="none" stroke="#fff" stroke-linecap="round" stroke-linejoin="round" stroke-width="1.4"/>
    <line id="Линия_5" data-name="Линия 5" x1="4.335" y1="4.335" transform="translate(25.388 40.889)" fill="none" stroke="#fff" stroke-linecap="round" stroke-linejoin="round" stroke-width="1.4"/>
    <line id="Линия_6" data-name="Линия 6" x1="4.335" y1="4.335" transform="translate(22.408 24.146)" fill="none" stroke="#fff" stroke-linecap="round" stroke-linejoin="round" stroke-width="1.4"/>
    <line id="Линия_7" data-name="Линия 7" x1="4.335" y1="4.335" transform="translate(14.747 30.247)" fill="none" stroke="#fff" stroke-linecap="round" stroke-linejoin="round" stroke-width="1.4"/>
    <path id="Контур_68" data-name="Контур 68" d="M602.077,81.361C609.01,73.68,610.344,65.507,608,58.91" transform="translate(-569.304 -58.91)" fill="none" stroke="#fff" stroke-linecap="round" stroke-linejoin="round" stroke-width="1.4"/>
    <path id="Контур_69" data-name="Контур 69" d="M606.15,84.983c5.723-5.722,11.207-5.2,13.477-1.23" transform="translate(-569.081 -57.717)" fill="none" stroke="#fff" stroke-linecap="round" stroke-linejoin="round" stroke-width="1.4"/>
    <path id="Контур_70" data-name="Контур 70" d="M604.095,83.174c6.858-6.858,10.724-9.752,16.07-8.853" transform="translate(-569.193 -58.076)" fill="none" stroke="#fff" stroke-linecap="round" stroke-linejoin="round" stroke-width="1.4"/>
    <path id="Контур_71" data-name="Контур 71" d="M607.987,71.015a14.653,14.653,0,0,1-7.018-9.146" transform="translate(-569.364 -58.748)" fill="none" stroke="#fff" stroke-linecap="round" stroke-linejoin="round" stroke-width="1.4"/>
    <path id="Контур_72" data-name="Контур 72" d="M614.118,60.608c-.939,6.438-5.521,6.482-5.521,6.482" transform="translate(-568.947 -58.817)" fill="none" stroke="#fff" stroke-linecap="round" stroke-linejoin="round" stroke-width="1.4"/>
    <path id="Контур_73" data-name="Контур 73" d="M621.936,62.811a14.513,14.513,0,0,0-7.41,12.523" transform="translate(-568.623 -58.697)" fill="none" stroke="#fff" stroke-linecap="round" stroke-linejoin="round" stroke-width="1.4"/>
    <path id="Контур_74" data-name="Контур 74" d="M612.81,80.836c1.2,5.181,3.6,7.251,3.6,7.251" transform="translate(-568.717 -57.711)" fill="none" stroke="#fff" stroke-linecap="round" stroke-linejoin="round" stroke-width="1.4"/>
    <path id="Контур_75" data-name="Контур 75" d="M616.324,81.4c2.179-4.423,5.106-3.767,5.106-3.767" transform="translate(-568.524 -57.888)" fill="none" stroke="#fff" stroke-linecap="round" stroke-linejoin="round" stroke-width="1.4"/>
  </g>
</svg>
