<svg xmlns="http://www.w3.org/2000/svg" width="37.774" height="30.654" viewBox="0 0 37.774 30.654">
  <path id="Контур_102" data-name="Контур 102" d="M38.359,20.7a19.512,19.512,0,0,0-9.019-.423c-.026,0-.026,0-.053.026a8.226,8.226,0,0,0-2.354,1.3V21.5l.846-2.142a.733.733,0,0,0-.079-.661.776.776,0,0,0-.608-.317h-8.2l-.106-.106c-3.306-3.147-8.834-3.809-16.452-2.01a.746.746,0,0,0-.555.846c1.455,7.644,4.311,12.378,8.49,14.071a9.326,9.326,0,0,0,3.6.688,11.382,11.382,0,0,0,2.169-.212L12.042,38.69a4.515,4.515,0,0,0-.37,4.6,4.558,4.558,0,0,0,4.179,1.984h12.8a4.558,4.558,0,0,0,4.179-1.984,4.515,4.515,0,0,0-.37-4.6l-3.227-5.634h.185A7.2,7.2,0,0,0,34.1,31.39c2.248-1.825,3.862-5.131,4.761-9.866A.657.657,0,0,0,38.359,20.7ZM10.825,29.829C7.255,28.4,4.742,24.249,3.34,17.53c6.745-1.508,11.585-.9,14.415,1.746,2.8,2.645,2.857,6.745,2.724,8.517a28.78,28.78,0,0,1-8.517-5.925A.729.729,0,1,0,10.931,22.9a30.577,30.577,0,0,0,8.517,6C17.649,29.856,14.131,31.178,10.825,29.829ZM31.615,42.578a3.185,3.185,0,0,1-2.936,1.27h-12.8a3.185,3.185,0,0,1-2.936-1.27,3.171,3.171,0,0,1,.37-3.174l4.708-8.279a16.46,16.46,0,0,0,3.386-1.64.827.827,0,0,0,.291-.238.587.587,0,0,0,.132-.291c.026-.264.9-5.263-1.746-9.151h5.925l-.5,1.27a.94.94,0,0,0-.053.264v7.776a.661.661,0,0,0,.106.37l.132.238h0l1.058,1.825H20.426a.712.712,0,0,0-.635.37L14.9,40.462a.7.7,0,0,0,.264.979.861.861,0,0,0,.37.106.743.743,0,0,0,.635-.37L20.85,33h6.718l3.676,6.427A3.12,3.12,0,0,1,31.615,42.578Zm-3.2-11.056-1.084-1.9a24.867,24.867,0,0,0,4.5-3.518.729.729,0,0,0-1.032-1.032,22.526,22.526,0,0,1-3.862,3.095V23.746a5.683,5.683,0,0,1,2.777-2.063,17.732,17.732,0,0,1,7.644.264C35.873,28.851,32.8,32.13,28.414,31.522Z" transform="translate(-1.441 -14.947)" fill="#fff" stroke="#fff" stroke-width="0.65"/>
</svg>
