<svg xmlns="http://www.w3.org/2000/svg" width="21.188" height="30.651" viewBox="0 0 21.188 30.651">
  <g id="Сгруппировать_24" data-name="Сгруппировать 24" transform="translate(0.325 0.325)">
    <path id="Контур_12" data-name="Контур 12" d="M50.9,34.45a3.953,3.953,0,1,1,3.955,3.955A3.945,3.945,0,0,1,50.9,34.45Zm9.483,0a5.524,5.524,0,1,0-5.528,5.528,5.535,5.535,0,0,0,5.528-5.528Z" transform="translate(-44.581 -24.181)" fill="#fff" stroke="#fff" stroke-width="0.65"/>
    <path id="Контур_13" data-name="Контур 13" d="M39.669,10.573c.882,0,8.7.238,8.7,8.7,0,6.314-6.624,15.13-8.7,17.7-2.049-2.573-8.7-11.365-8.7-17.7C30.973,10.811,38.787,10.573,39.669,10.573Zm0,28.424a.723.723,0,0,0,.6-.286c.405-.453,9.673-11.413,9.673-19.466S43.481,9,39.669,9,29.4,11.168,29.4,19.269s9.268,18.942,9.673,19.466a.7.7,0,0,0,.6.262Z" transform="translate(-29.4 -9)" fill="#fff" stroke="#fff" stroke-width="0.65"/>
  </g>
</svg>
