<svg xmlns="http://www.w3.org/2000/svg" width="32.922" height="30.627" viewBox="0 0 32.922 30.627">
  <path id="Контур_37" data-name="Контур 37" d="M36.066,37.809H35.54V36.162a.632.632,0,0,0-.621-.621H33.248V27.588h.525a.632.632,0,0,0,.621-.621V25.3h.525a.632.632,0,0,0,.621-.621V21.833h.525a.638.638,0,0,0,.6-.43.59.59,0,0,0-.215-.693L20.925,9.2a.609.609,0,0,0-.74,0L4.663,20.711a.611.611,0,0,0-.215.693.638.638,0,0,0,.6.43H5.57v2.818a.632.632,0,0,0,.621.621h.5v1.672a.632.632,0,0,0,.621.621h.525v7.952H6.167a.632.632,0,0,0-.621.621v1.648H5.021a.632.632,0,0,0-.621.621v.048a.632.632,0,0,0,.621.621H36.066a.632.632,0,0,0,.621-.621V38.43A.617.617,0,0,0,36.066,37.809Zm-4.084-2.269H28.639V27.588h3.343Zm-8.5,0V27.588h.525a.632.632,0,0,0,.621-.621V25.3h1.624v1.672a.632.632,0,0,0,.621.621H27.4v7.952Zm-9.791,0V27.588h.525a.632.632,0,0,0,.621-.621V25.3H16.46v1.672a.632.632,0,0,0,.621.621h.525v7.952Zm9.672-9.194H17.725V25.3h5.636Zm-4.49,1.242h3.343v7.952H18.872Zm14.281-1.242h-5.66V25.3h5.636v1.051ZM20.543,10.49l13.636,10.1H6.907ZM34.3,21.833v2.2H6.788v-2.2ZM13.594,25.3v1.051H7.934V25.3ZM9.1,27.588h3.343v7.952H9.1ZM6.788,36.782H34.322v1.027H6.788Z" transform="translate(-4.094 -8.748)" fill="#fff" stroke="#fff" stroke-width="0.6"/>
</svg>
