<svg xmlns="http://www.w3.org/2000/svg" width="59.503" height="61.4" viewBox="0 0 59.503 61.4">
  <g id="Сгруппировать_42" data-name="Сгруппировать 42" transform="translate(-1492.055 -1502.874)">
    <path id="Контур_89" data-name="Контур 89" d="M1527.127,1530.189c14.944,2.145,23.731,13.357,23.731,26.866,0,15.042-13.007,27.236-29.052,27.236s-29.052-12.194-29.052-27.236c0-13.6,8.9-24.864,24.018-26.906" transform="translate(0 -20.717)" fill="none" stroke="#fff" stroke-linecap="round" stroke-linejoin="round" stroke-width="1.4"/>
    <path id="Контур_90" data-name="Контур 90" d="M1522.931,1633.244a22.866,22.866,0,0,1-3.889-12.834,25.536,25.536,0,0,1,1.574-8.99" transform="translate(-20.492 -84.071)" fill="none" stroke="#fff" stroke-linecap="round" stroke-linejoin="round" stroke-width="1.4"/>
    <ellipse id="Эллипс_9" data-name="Эллипс 9" cx="6.879" cy="5.536" rx="6.879" ry="5.536" transform="translate(1514.927 1515.936)" fill="none" stroke="#fff" stroke-linecap="round" stroke-linejoin="round" stroke-width="1.4"/>
    <path id="Контур_91" data-name="Контур 91" d="M1608.917,1603.576a9.332,9.332,0,0,1,1.15,4.581c0,5.26-5.948,9.024-5.948,9.024-1.619-3.824-5.463-3.8-5.463-9.024a9.333,9.333,0,0,1,1.15-4.582" transform="translate(-82.556 -77.957)" fill="none" stroke="#fff" stroke-linecap="round" stroke-linejoin="round" stroke-width="1.4"/>
    <path id="Контур_92" data-name="Контур 92" d="M1608.857,1517.282a9.292,9.292,0,0,0,1.21-4.685c0-5.26-5.948-9.024-5.948-9.024-1.619,3.824-5.463,3.8-5.463,9.024a9.292,9.292,0,0,0,1.21,4.685" transform="translate(-82.556)" fill="none" stroke="#fff" stroke-linecap="round" stroke-linejoin="round" stroke-width="1.4"/>
    <path id="Контур_93" data-name="Контур 93" d="M1552.138,1568.612a9.006,9.006,0,0,1-5.393,1.681c-5.26,0-9.024-5.948-9.024-5.948,3.824-1.619,3.8-5.463,9.024-5.463a9.012,9.012,0,0,1,5.38,1.671" transform="translate(-35.054 -43.116)" fill="none" stroke="#fff" stroke-linecap="round" stroke-linejoin="round" stroke-width="1.4"/>
    <path id="Контур_94" data-name="Контур 94" d="M1646.041,1568.6a9,9,0,0,0,5.411,1.695c5.26,0,9.024-5.948,9.024-5.948-3.824-1.619-3.8-5.463-9.024-5.463a9.012,9.012,0,0,0-5.379,1.671" transform="translate(-119.495 -43.116)" fill="none" stroke="#fff" stroke-linecap="round" stroke-linejoin="round" stroke-width="1.4"/>
  </g>
</svg>
