<svg xmlns="http://www.w3.org/2000/svg" width="67.311" height="61.649" viewBox="0 0 67.311 61.649">
  <g id="Сгруппировать_34" data-name="Сгруппировать 34" transform="translate(0.711 0.706)">
    <path id="Контур_56" data-name="Контур 56" d="M169.362,698.334c-7.166,1.378-11.5,8.9-13.57,7.523s-.434-2.844-.434-2.844-4.6,1.964-4.85-1.088,3.539-4.089,3.539-4.089-7.274.457-8.9-3.105,2.737-3.163,2.737-3.163-7.491-1.382-6.49-4.837,3.533-2.408,3.533-2.408-4.383-1.42-2.7-3.359,4.363.4,4.363.4-1.246-4.624,1.354-4.7,7.151,5.33,7.151,5.33-1.69-3.275.272-3.66,7.372,5.495,7.372,5.495-.413-2.659,1.327-2.37S169.362,698.334,169.362,698.334Z" transform="translate(-141.305 -665.786)" fill="none" stroke="#fff" stroke-linecap="round" stroke-linejoin="round" stroke-width="1.4"/>
    <path id="Контур_57" data-name="Контур 57" d="M164.862,693.565c2.825,2.579,5.654,4.9,5.654,4.9,5.1-5.812,13.8-6.638,13.787-9.029a1.467,1.467,0,0,0-2.148-1.531s4.18-3.292,1.757-4.746-5.381,1.5-5.381,1.5,4.389-6.277,2.293-9.152-4.164,1.159-4.164,1.159,2.965-7.211-.488-7.713-3.968,2.169-3.968,2.169,1.222-4.464-1.332-3.753-2.069,4.035-2.069,4.035-3.2-2.968-4.693-.689.538,8.5.538,8.5-1.82-2.819-3.222-1.231c-.662.748-.577,2.735-.3,4.626" transform="translate(-138.142 -667.296)" fill="none" stroke="#fff" stroke-linecap="round" stroke-linejoin="round" stroke-width="1.4"/>
    <path id="Контур_58" data-name="Контур 58" d="M171.482,709.045c7.923,1.457,12.789,8.2,15.058,7.068s.448-2.479.448-2.479,5.094,1.882,5.342-.785-3.951-3.708-3.951-3.708,8.033.654,9.787-2.413-3.056-2.869-3.056-2.869,8.253-.951,7.111-4.017a3.212,3.212,0,0,0-3.925-2.235s4.821-1.091,2.947-2.851-4.81.2-4.81.2,1.325-4.012-1.546-4.17-7.835,4.425-7.835,4.425,1.829-2.814-.34-3.219-8.076,4.561-8.076,4.561.427-2.318-1.491-2.124S171.482,709.045,171.482,709.045Z" transform="translate(-136.439 -663.51)" fill="none" stroke="#fff" stroke-linecap="round" stroke-linejoin="round" stroke-width="1.4"/>
    <path id="Контур_59" data-name="Контур 59" d="M148.445,683.657c9.487,1.63,16.535,7.293,21.13,15.456,6.358,11.3-1.014,25.545-1.014,25.545" transform="translate(-140.153 -664.658)" fill="none" stroke="#fff" stroke-linecap="round" stroke-linejoin="round" stroke-width="1.4"/>
    <path id="Контур_60" data-name="Контур 60" d="M148.445,691.921a46.448,46.448,0,0,0,14.73-2.039" transform="translate(-140.153 -663.654)" fill="none" stroke="#fff" stroke-linecap="round" stroke-linejoin="round" stroke-width="1.4"/>
    <path id="Контур_61" data-name="Контур 61" d="M169.535,670.925c-2.636,9.39-1.283,21.507-.163,26.959,1.627,7.911-.48,11.42-.48,11.42" transform="translate(-136.999 -666.711)" fill="none" stroke="#fff" stroke-linecap="round" stroke-linejoin="round" stroke-width="1.4"/>
    <path id="Контур_62" data-name="Контур 62" d="M168.341,689.771c2.116-7.8,7.779-9.9,7.779-9.9" transform="translate(-136.945 -665.268)" fill="none" stroke="#fff" stroke-linecap="round" stroke-linejoin="round" stroke-width="1.4"/>
    <path id="Контур_63" data-name="Контур 63" d="M168.8,683.492c-4.92-3.916-5.7-4.481-5.7-4.481" transform="translate(-137.79 -665.407)" fill="none" stroke="#fff" stroke-linecap="round" stroke-linejoin="round" stroke-width="1.4"/>
    <path id="Контур_64" data-name="Контур 64" d="M168.011,715.323c1.043-6.036,8.666-13.084,17.005-13.808s11.854-5.164,11.854-5.164" transform="translate(-136.999 -662.611)" fill="none" stroke="#fff" stroke-linecap="round" stroke-linejoin="round" stroke-width="1.4"/>
    <path id="Контур_65" data-name="Контур 65" d="M174.34,703.993c5.68-1.047,12.1,4.646,15.163,6.1" transform="translate(-135.978 -661.4)" fill="none" stroke="#fff" stroke-linecap="round" stroke-linejoin="round" stroke-width="1.4"/>
    <path id="Контур_66" data-name="Контур 66" d="M183.164,694.141c-2.693,2.747-.651,7-3.668,8.326" transform="translate(-135.147 -662.968)" fill="none" stroke="#fff" stroke-linecap="round" stroke-linejoin="round" stroke-width="1.4"/>
  </g>
</svg>
